<mxfile host="65bd71144e">
    <diagram id="l0viTIO8WPynaM2URvki" name="Page-1">
        <mxGraphModel dx="1262" dy="688" grid="0" gridSize="10" guides="1" tooltips="1" connect="1" arrows="1" fold="1" page="1" pageScale="1" pageWidth="850" pageHeight="1100" math="0" shadow="0">
            <root>
                <mxCell id="0"/>
                <mxCell id="1" parent="0"/>
                <mxCell id="9" style="edgeStyle=orthogonalEdgeStyle;html=1;exitX=1;exitY=0.5;exitDx=0;exitDy=0;entryX=0;entryY=0.5;entryDx=0;entryDy=0;strokeColor=default;rounded=1;jumpStyle=arc;" parent="1" source="3" target="4" edge="1">
                    <mxGeometry relative="1" as="geometry">
                        <mxPoint x="220" y="109" as="sourcePoint"/>
                        <mxPoint x="340" y="269" as="targetPoint"/>
                    </mxGeometry>
                </mxCell>
                <mxCell id="10" style="edgeStyle=orthogonalEdgeStyle;rounded=1;jumpStyle=arc;html=1;exitX=1;exitY=0.5;exitDx=0;exitDy=0;entryX=0;entryY=0.5;entryDx=0;entryDy=0;strokeColor=default;" parent="1" source="3" target="5" edge="1">
                    <mxGeometry relative="1" as="geometry">
                        <mxPoint x="220" y="109" as="sourcePoint"/>
                        <mxPoint x="340" y="189" as="targetPoint"/>
                    </mxGeometry>
                </mxCell>
                <mxCell id="18" style="edgeStyle=orthogonalEdgeStyle;rounded=1;jumpStyle=arc;html=1;exitX=1;exitY=0.5;exitDx=0;exitDy=0;entryX=0;entryY=0.5;entryDx=0;entryDy=0;strokeColor=default;" parent="1" source="3" target="16" edge="1">
                    <mxGeometry relative="1" as="geometry">
                        <mxPoint x="220" y="109" as="sourcePoint"/>
                        <mxPoint x="340" y="349" as="targetPoint"/>
                    </mxGeometry>
                </mxCell>
                <mxCell id="3" value="Refresh Coins" style="rounded=1;whiteSpace=wrap;html=1;fillColor=#3399fe;fontColor=#000000;" parent="1" vertex="1">
                    <mxGeometry x="70" y="400" width="120" height="60" as="geometry"/>
                </mxCell>
                <mxCell id="11" style="edgeStyle=orthogonalEdgeStyle;rounded=1;jumpStyle=arc;html=1;exitX=1;exitY=0.5;exitDx=0;exitDy=0;strokeColor=default;entryX=0;entryY=0.5;entryDx=0;entryDy=0;" parent="1" source="4" target="6" edge="1">
                    <mxGeometry relative="1" as="geometry">
                        <mxPoint x="480" y="509" as="sourcePoint"/>
                        <mxPoint x="530" y="590" as="targetPoint"/>
                    </mxGeometry>
                </mxCell>
                <mxCell id="50" style="edgeStyle=orthogonalEdgeStyle;jumpStyle=arc;html=1;exitX=0.5;exitY=0;exitDx=0;exitDy=0;entryX=0;entryY=0.5;entryDx=0;entryDy=0;" edge="1" parent="1" source="4" target="35">
                    <mxGeometry relative="1" as="geometry"/>
                </mxCell>
                <mxCell id="4" value="CoinCreated" style="rounded=1;whiteSpace=wrap;html=1;fillColor=#ff992a;fontColor=#000000;" parent="1" vertex="1">
                    <mxGeometry x="380" y="220" width="120" height="60" as="geometry"/>
                </mxCell>
                <mxCell id="23" style="edgeStyle=orthogonalEdgeStyle;rounded=1;jumpStyle=arc;html=1;exitX=1;exitY=0.5;exitDx=0;exitDy=0;entryX=0;entryY=0.5;entryDx=0;entryDy=0;strokeColor=default;" parent="1" source="5" target="19" edge="1">
                    <mxGeometry relative="1" as="geometry">
                        <mxPoint x="480" y="429" as="sourcePoint"/>
                        <mxPoint x="530" y="429" as="targetPoint"/>
                    </mxGeometry>
                </mxCell>
                <mxCell id="48" style="edgeStyle=orthogonalEdgeStyle;html=1;exitX=1;exitY=0.5;exitDx=0;exitDy=0;entryX=0;entryY=0.5;entryDx=0;entryDy=0;jumpStyle=arc;" edge="1" parent="1" source="5" target="41">
                    <mxGeometry relative="1" as="geometry">
                        <mxPoint x="470" y="290" as="targetPoint"/>
                    </mxGeometry>
                </mxCell>
                <mxCell id="5" value="CoinDeleted" style="rounded=1;whiteSpace=wrap;html=1;fillColor=#ff992a;fontColor=#000000;" parent="1" vertex="1">
                    <mxGeometry x="340" y="400" width="120" height="60" as="geometry"/>
                </mxCell>
                <mxCell id="13" style="edgeStyle=orthogonalEdgeStyle;rounded=1;jumpStyle=arc;html=1;exitX=1;exitY=0.5;exitDx=0;exitDy=0;strokeColor=default;entryX=0;entryY=0.5;entryDx=0;entryDy=0;" parent="1" source="6" target="12" edge="1">
                    <mxGeometry relative="1" as="geometry">
                        <mxPoint x="650" y="509" as="sourcePoint"/>
                        <mxPoint x="690" y="509" as="targetPoint"/>
                    </mxGeometry>
                </mxCell>
                <mxCell id="6" value="Refresh Trades" style="rounded=1;whiteSpace=wrap;html=1;fillColor=#3399fe;fontColor=#000000;" parent="1" vertex="1">
                    <mxGeometry x="560" y="220" width="120" height="60" as="geometry"/>
                </mxCell>
                <mxCell id="47" style="edgeStyle=orthogonalEdgeStyle;jumpStyle=arc;html=1;exitX=1;exitY=0.5;exitDx=0;exitDy=0;entryX=0;entryY=0.5;entryDx=0;entryDy=0;" parent="1" source="12" target="35" edge="1">
                    <mxGeometry relative="1" as="geometry"/>
                </mxCell>
                <mxCell id="12" value="TradeUpdated" style="rounded=1;whiteSpace=wrap;html=1;fillColor=#ff992a;fontColor=#000000;" parent="1" vertex="1">
                    <mxGeometry x="740" y="220" width="120" height="60" as="geometry"/>
                </mxCell>
                <mxCell id="56" style="edgeStyle=orthogonalEdgeStyle;jumpStyle=arc;html=1;exitX=1;exitY=0.5;exitDx=0;exitDy=0;entryX=0;entryY=0.5;entryDx=0;entryDy=0;" edge="1" parent="1" source="16" target="35">
                    <mxGeometry relative="1" as="geometry"/>
                </mxCell>
                <mxCell id="16" value="CoinUpdated" style="rounded=1;whiteSpace=wrap;html=1;fillColor=#ff992a;fontColor=#000000;" parent="1" vertex="1">
                    <mxGeometry x="230" y="120" width="120" height="60" as="geometry"/>
                </mxCell>
                <mxCell id="22" style="edgeStyle=orthogonalEdgeStyle;rounded=1;jumpStyle=arc;html=1;entryX=0;entryY=0.5;entryDx=0;entryDy=0;strokeColor=default;exitX=1;exitY=0.5;exitDx=0;exitDy=0;" parent="1" source="19" target="21" edge="1">
                    <mxGeometry relative="1" as="geometry">
                        <mxPoint x="640" y="440" as="sourcePoint"/>
                        <mxPoint x="690" y="429" as="targetPoint"/>
                    </mxGeometry>
                </mxCell>
                <mxCell id="19" value="Delete Trades" style="rounded=1;whiteSpace=wrap;html=1;fillColor=#3399fe;fontColor=#000000;" parent="1" vertex="1">
                    <mxGeometry x="520" y="490" width="120" height="60" as="geometry"/>
                </mxCell>
                <mxCell id="52" style="edgeStyle=orthogonalEdgeStyle;jumpStyle=arc;html=1;exitX=1;exitY=0.5;exitDx=0;exitDy=0;entryX=0;entryY=0.5;entryDx=0;entryDy=0;" edge="1" parent="1" source="21" target="41">
                    <mxGeometry relative="1" as="geometry"/>
                </mxCell>
                <mxCell id="21" value="TradeDeleted" style="rounded=1;whiteSpace=wrap;html=1;fillColor=#ff992a;fontColor=#000000;" parent="1" vertex="1">
                    <mxGeometry x="710" y="490" width="120" height="60" as="geometry"/>
                </mxCell>
                <mxCell id="44" style="edgeStyle=orthogonalEdgeStyle;jumpStyle=arc;html=1;exitX=1;exitY=0.5;exitDx=0;exitDy=0;entryX=0;entryY=0.5;entryDx=0;entryDy=0;" parent="1" source="25" target="39" edge="1">
                    <mxGeometry relative="1" as="geometry"/>
                </mxCell>
                <mxCell id="25" value="Expire Banned Coin" style="rounded=1;whiteSpace=wrap;html=1;fillColor=#3399fe;fontColor=#000000;" parent="1" vertex="1">
                    <mxGeometry x="900" y="510" width="120" height="60" as="geometry"/>
                </mxCell>
                <mxCell id="36" style="edgeStyle=orthogonalEdgeStyle;html=1;exitX=1;exitY=0.5;exitDx=0;exitDy=0;entryX=0;entryY=0.5;entryDx=0;entryDy=0;jumpStyle=arc;" parent="1" source="35" target="37" edge="1">
                    <mxGeometry relative="1" as="geometry">
                        <mxPoint x="1080" as="targetPoint"/>
                    </mxGeometry>
                </mxCell>
                <mxCell id="35" value="Create Banned Coin" style="rounded=1;whiteSpace=wrap;html=1;fillColor=#3399fe;fontColor=#000000;" parent="1" vertex="1">
                    <mxGeometry x="910" y="120" width="120" height="60" as="geometry"/>
                </mxCell>
                <mxCell id="37" value="BannedCoinCreated" style="rounded=1;whiteSpace=wrap;html=1;fillColor=#ff992a;fontColor=#000000;" parent="1" vertex="1">
                    <mxGeometry x="1110" y="120" width="120" height="60" as="geometry"/>
                </mxCell>
                <mxCell id="39" value="BannedCoinDeleted" style="rounded=1;whiteSpace=wrap;html=1;fillColor=#ff992a;fontColor=#000000;" parent="1" vertex="1">
                    <mxGeometry x="1110" y="400" width="120" height="60" as="geometry"/>
                </mxCell>
                <mxCell id="42" style="edgeStyle=orthogonalEdgeStyle;jumpStyle=arc;html=1;exitX=1;exitY=0.5;exitDx=0;exitDy=0;entryX=0;entryY=0.5;entryDx=0;entryDy=0;" parent="1" source="41" target="39" edge="1">
                    <mxGeometry relative="1" as="geometry"/>
                </mxCell>
                <mxCell id="41" value="Delete Banned Coin" style="rounded=1;whiteSpace=wrap;html=1;fillColor=#3399fe;fontColor=#000000;" parent="1" vertex="1">
                    <mxGeometry x="900" y="400" width="120" height="60" as="geometry"/>
                </mxCell>
                <mxCell id="53" value="10분마다 확인한다" style="shape=document;whiteSpace=wrap;html=1;boundedLbl=1;" vertex="1" parent="1">
                    <mxGeometry x="70" y="480" width="120" height="80" as="geometry"/>
                </mxCell>
                <mxCell id="54" value="expire 되는 시점으로 등록해서 확인한다." style="shape=document;whiteSpace=wrap;html=1;boundedLbl=1;" vertex="1" parent="1">
                    <mxGeometry x="900" y="580" width="120" height="80" as="geometry"/>
                </mxCell>
                <mxCell id="55" value="10분마다 확인한다" style="shape=document;whiteSpace=wrap;html=1;boundedLbl=1;" vertex="1" parent="1">
                    <mxGeometry x="560" y="290" width="120" height="80" as="geometry"/>
                </mxCell>
            </root>
        </mxGraphModel>
    </diagram>
</mxfile>